<svg width="256" height="256" viewBox="0 0 256 256" fill="none" xmlns="http://www.w3.org/2000/svg">
  <path
    d="M128 28L196.416 67.5V146.5L128 186L59.5837 146.5V67.5L128 28Z"
    stroke="#F97316"
    stroke-width="14"
    stroke-linejoin="round"
  />
  <g fill="#F97316">
    <rect x="118" y="72" width="20" height="28" rx="8" />
    <rect x="118" y="156" width="20" height="28" rx="8" />
    <rect x="156" y="118" width="28" height="20" rx="8" />
    <rect x="72" y="118" width="28" height="20" rx="8" />
    <rect x="145.678" y="83.18" width="20" height="28" rx="8" transform="rotate(45 145.678 83.18)" />
    <rect x="86.2843" y="142.574" width="20" height="28" rx="8" transform="rotate(45 86.2843 142.574)" />
    <rect x="172.82" y="145.678" width="20" height="28" rx="8" transform="rotate(135 172.82 145.678)" />
    <rect x="113.426" y="86.2843" width="20" height="28" rx="8" transform="rotate(135 113.426 86.2843)" />
    <circle cx="128" cy="128" r="44" />
  </g>
  <circle cx="128" cy="128" r="20" fill="#312E49" />
</svg>
