<svg width="256" height="256" viewBox="0 0 256 256" fill="none" xmlns="http://www.w3.org/2000/svg">
  <rect width="256" height="256" rx="64" fill="#FFF7ED"/>
  <path d="M128 32L192.951 69.5V144.5L128 182L63.0487 144.5V69.5L128 32Z" stroke="#F97316" stroke-width="14" stroke-linejoin="round"/>
  <path d="M111.573 92.1213C116.306 86.5623 124.819 85.8927 130.379 90.6254L165.382 120.429L149.809 138.725L114.806 108.921C109.246 104.189 108.576 95.6757 113.309 90.1158L111.573 92.1213Z" fill="#F97316"/>
  <path d="M146.304 104.833L151.785 98.3937C155.291 94.2761 161.482 93.7801 165.599 97.286L168.177 99.4817C171.147 102.01 171.686 106.466 169.394 109.648L163.871 117.318L146.304 104.833Z" fill="#F97316"/>
  <path d="M87 145.5C87 122.58 105.58 104 128.5 104C133.301 104 137.912 104.815 142.2 106.314L128.323 122.622C128.265 122.621 128.206 122.621 128.147 122.621C115.844 122.621 105.871 132.594 105.871 144.897C105.871 157.2 115.844 167.173 128.147 167.173C140.45 167.173 150.423 157.2 150.423 144.897C150.423 143.675 150.325 142.477 150.137 141.309L166.458 127.421C167.964 131.717 168.783 136.338 168.783 141.15C168.783 164.07 150.203 182.65 127.283 182.65C104.363 182.65 87 168.42 87 145.5Z" fill="#2F2A44"/>
  <circle cx="128" cy="145" r="12" fill="#2F2A44"/>
</svg>
